<mxfile host="app.diagrams.net" modified="2023-09-18T13:59:07.512Z" agent="Mozilla/5.0 (Windows NT 10.0; Win64; x64) AppleWebKit/537.36 (KHTML, like Gecko) Chrome/116.0.0.0 Safari/537.36" etag="dzme5JNjN5v6E4kSN9Z8" version="21.7.5" type="onedrive">
  <diagram name="Page-1" id="ZmRRI4YOBfavUmGFzrI7">
    <mxGraphModel grid="1" page="1" gridSize="10" guides="1" tooltips="1" connect="1" arrows="1" fold="1" pageScale="1" pageWidth="827" pageHeight="1169" math="0" shadow="0">
      <root>
        <mxCell id="0" />
        <mxCell id="1" parent="0" />
        <mxCell id="ASQWpt-JjjPKI-APMA-5-8" value="" style="rounded=0;whiteSpace=wrap;html=1;" vertex="1" parent="1">
          <mxGeometry x="-200" y="1210" width="1950" height="270" as="geometry" />
        </mxCell>
        <mxCell id="ASQWpt-JjjPKI-APMA-5-9" value="" style="rounded=0;whiteSpace=wrap;html=1;" vertex="1" parent="1">
          <mxGeometry x="-200" y="960" width="1950" height="250" as="geometry" />
        </mxCell>
        <mxCell id="ASQWpt-JjjPKI-APMA-5-10" value="" style="rounded=0;whiteSpace=wrap;html=1;" vertex="1" parent="1">
          <mxGeometry x="-200" y="700" width="1950" height="260" as="geometry" />
        </mxCell>
        <mxCell id="ASQWpt-JjjPKI-APMA-5-11" value="" style="rounded=0;whiteSpace=wrap;html=1;" vertex="1" parent="1">
          <mxGeometry x="-200" y="440" width="1950" height="260" as="geometry" />
        </mxCell>
        <mxCell id="ASQWpt-JjjPKI-APMA-5-17" value="&lt;font style=&quot;font-size: 36px;&quot;&gt;&lt;b style=&quot;&quot;&gt;Customer&lt;/b&gt;&lt;/font&gt;" style="html=1;whiteSpace=wrap;rotation=-90;" vertex="1" parent="1">
          <mxGeometry x="-315" y="1325" width="270" height="40" as="geometry" />
        </mxCell>
        <mxCell id="ASQWpt-JjjPKI-APMA-5-18" value="&lt;b style=&quot;&quot;&gt;&lt;font style=&quot;font-size: 36px;&quot;&gt;System&lt;/font&gt;&lt;/b&gt;" style="html=1;whiteSpace=wrap;rotation=-90;" vertex="1" parent="1">
          <mxGeometry x="-310" y="810" width="260" height="40" as="geometry" />
        </mxCell>
        <mxCell id="ASQWpt-JjjPKI-APMA-5-19" value="&lt;b style=&quot;&quot;&gt;&lt;font style=&quot;font-size: 36px;&quot;&gt;Admin&lt;/font&gt;&lt;/b&gt;" style="html=1;whiteSpace=wrap;rotation=-90;" vertex="1" parent="1">
          <mxGeometry x="-305" y="1065" width="250" height="40" as="geometry" />
        </mxCell>
        <mxCell id="ASQWpt-JjjPKI-APMA-5-20" value="&lt;b style=&quot;&quot;&gt;&lt;font style=&quot;font-size: 36px;&quot;&gt;System user&lt;/font&gt;&lt;br&gt;&lt;/b&gt;" style="html=1;whiteSpace=wrap;rotation=-90;" vertex="1" parent="1">
          <mxGeometry x="-310" y="550" width="260" height="40" as="geometry" />
        </mxCell>
        <mxCell id="ASQWpt-JjjPKI-APMA-5-25" value="" style="ellipse;html=1;shape=startState;fillColor=#000000;strokeColor=#ff0000;" vertex="1" parent="1">
          <mxGeometry x="-160" y="1510" width="30" height="30" as="geometry" />
        </mxCell>
        <mxCell id="ASQWpt-JjjPKI-APMA-5-26" value="" style="edgeStyle=orthogonalEdgeStyle;html=1;verticalAlign=bottom;endArrow=open;endSize=8;strokeColor=#ff0000;rounded=0;entryX=0.5;entryY=1;entryDx=0;entryDy=0;exitX=0.5;exitY=0;exitDx=0;exitDy=0;" edge="1" parent="1" source="QKw1NBS8k4IxVELJMw76-47" target="QKw1NBS8k4IxVELJMw76-1">
          <mxGeometry relative="1" as="geometry">
            <mxPoint x="-65" y="1380" as="targetPoint" />
            <mxPoint x="-140" y="1520" as="sourcePoint" />
          </mxGeometry>
        </mxCell>
        <mxCell id="QKw1NBS8k4IxVELJMw76-1" value="&lt;b&gt;&lt;font style=&quot;font-size: 18px;&quot;&gt;Register to the system&lt;/font&gt;&lt;/b&gt;" style="rounded=1;whiteSpace=wrap;html=1;arcSize=40;fontColor=#000000;fillColor=#ffffc0;strokeColor=#ff0000;" vertex="1" parent="1">
          <mxGeometry x="-130" y="1360" width="120" height="40" as="geometry" />
        </mxCell>
        <mxCell id="QKw1NBS8k4IxVELJMw76-3" value="" style="rhombus;whiteSpace=wrap;html=1;fontColor=#000000;fillColor=#ffffc0;strokeColor=#ff0000;" vertex="1" parent="1">
          <mxGeometry x="-110" y="1300" width="80" height="40" as="geometry" />
        </mxCell>
        <mxCell id="QKw1NBS8k4IxVELJMw76-4" value="&lt;b&gt;&lt;font style=&quot;font-size: 14px;&quot;&gt;[Incorrect info]&lt;/font&gt;&lt;/b&gt;" style="edgeStyle=orthogonalEdgeStyle;html=1;align=left;verticalAlign=bottom;endArrow=open;endSize=8;strokeColor=#ff0000;rounded=0;entryX=1;entryY=0.5;entryDx=0;entryDy=0;exitX=1;exitY=0.5;exitDx=0;exitDy=0;" edge="1" parent="1" source="QKw1NBS8k4IxVELJMw76-3" target="QKw1NBS8k4IxVELJMw76-1">
          <mxGeometry x="-0.0769" y="10" relative="1" as="geometry">
            <mxPoint x="140" y="1180" as="targetPoint" />
            <Array as="points">
              <mxPoint x="10" y="1320" />
              <mxPoint x="10" y="1380" />
            </Array>
            <mxPoint as="offset" />
          </mxGeometry>
        </mxCell>
        <mxCell id="QKw1NBS8k4IxVELJMw76-5" value="&lt;font style=&quot;font-size: 14px;&quot;&gt;&lt;b&gt;[Correct info]&lt;/b&gt;&lt;/font&gt;" style="edgeStyle=orthogonalEdgeStyle;html=1;align=left;verticalAlign=top;endArrow=open;endSize=8;strokeColor=#ff0000;rounded=0;entryX=0.5;entryY=1;entryDx=0;entryDy=0;" edge="1" parent="1" source="QKw1NBS8k4IxVELJMw76-3" target="QKw1NBS8k4IxVELJMw76-58">
          <mxGeometry x="1" relative="1" as="geometry">
            <mxPoint y="1260" as="targetPoint" />
            <mxPoint as="offset" />
          </mxGeometry>
        </mxCell>
        <mxCell id="QKw1NBS8k4IxVELJMw76-6" value="&lt;b&gt;&lt;font style=&quot;font-size: 18px;&quot;&gt;Permit access and search&lt;/font&gt;&lt;/b&gt;" style="rounded=1;whiteSpace=wrap;html=1;arcSize=40;fontColor=#000000;fillColor=#ffffc0;strokeColor=#ff0000;" vertex="1" parent="1">
          <mxGeometry x="-130" y="1030" width="120" height="80" as="geometry" />
        </mxCell>
        <mxCell id="QKw1NBS8k4IxVELJMw76-8" value="&lt;b&gt;&lt;font style=&quot;font-size: 18px;&quot;&gt;Access different database&lt;/font&gt;&lt;/b&gt;" style="rounded=1;whiteSpace=wrap;html=1;arcSize=40;fontColor=#000000;fillColor=#ffffc0;strokeColor=#ff0000;" vertex="1" parent="1">
          <mxGeometry x="220" y="1400" width="150" height="40" as="geometry" />
        </mxCell>
        <mxCell id="QKw1NBS8k4IxVELJMw76-9" value="" style="edgeStyle=orthogonalEdgeStyle;html=1;verticalAlign=bottom;endArrow=open;endSize=8;strokeColor=#ff0000;rounded=0;exitX=0.5;exitY=0;exitDx=0;exitDy=0;entryX=0.5;entryY=1;entryDx=0;entryDy=0;" edge="1" parent="1" source="QKw1NBS8k4IxVELJMw76-1" target="QKw1NBS8k4IxVELJMw76-3">
          <mxGeometry relative="1" as="geometry">
            <mxPoint x="50" y="1280" as="targetPoint" />
          </mxGeometry>
        </mxCell>
        <mxCell id="QKw1NBS8k4IxVELJMw76-10" value="" style="rhombus;whiteSpace=wrap;html=1;fontColor=#000000;fillColor=#ffffc0;strokeColor=#ff0000;" vertex="1" parent="1">
          <mxGeometry x="90" y="1240" width="80" height="40" as="geometry" />
        </mxCell>
        <mxCell id="QKw1NBS8k4IxVELJMw76-11" value="&lt;font style=&quot;font-size: 14px;&quot;&gt;&lt;b&gt;[Customer]&lt;/b&gt;&lt;/font&gt;" style="edgeStyle=orthogonalEdgeStyle;html=1;align=left;verticalAlign=bottom;endArrow=open;endSize=8;strokeColor=#ff0000;rounded=0;entryX=0;entryY=0.5;entryDx=0;entryDy=0;" edge="1" parent="1" source="QKw1NBS8k4IxVELJMw76-10" target="QKw1NBS8k4IxVELJMw76-13">
          <mxGeometry x="-1" y="22" relative="1" as="geometry">
            <mxPoint x="210" y="1140" as="targetPoint" />
            <mxPoint x="-20" y="12" as="offset" />
          </mxGeometry>
        </mxCell>
        <mxCell id="QKw1NBS8k4IxVELJMw76-12" value="&lt;b&gt;&lt;font style=&quot;font-size: 14px;&quot;&gt;[Regular Customer]&lt;/font&gt;&lt;/b&gt;" style="edgeStyle=orthogonalEdgeStyle;html=1;align=left;verticalAlign=top;endArrow=open;endSize=8;strokeColor=#ff0000;rounded=0;entryX=0;entryY=0.25;entryDx=0;entryDy=0;" edge="1" parent="1" target="QKw1NBS8k4IxVELJMw76-8">
          <mxGeometry x="-0.4286" relative="1" as="geometry">
            <mxPoint x="250" y="1410" as="targetPoint" />
            <mxPoint x="130" y="1280" as="sourcePoint" />
            <Array as="points">
              <mxPoint x="130" y="1410" />
            </Array>
            <mxPoint as="offset" />
          </mxGeometry>
        </mxCell>
        <mxCell id="QKw1NBS8k4IxVELJMw76-13" value="&lt;font style=&quot;font-size: 18px;&quot;&gt;&lt;b&gt;Access permitted database&lt;/b&gt;&lt;/font&gt;" style="rounded=1;whiteSpace=wrap;html=1;arcSize=40;fontColor=#000000;fillColor=#ffffc0;strokeColor=#ff0000;" vertex="1" parent="1">
          <mxGeometry x="230" y="1240" width="160" height="40" as="geometry" />
        </mxCell>
        <mxCell id="QKw1NBS8k4IxVELJMw76-14" value="" style="edgeStyle=orthogonalEdgeStyle;html=1;verticalAlign=bottom;endArrow=open;endSize=8;strokeColor=#ff0000;rounded=0;entryX=0.5;entryY=0;entryDx=0;entryDy=0;exitX=1;exitY=0.5;exitDx=0;exitDy=0;" edge="1" parent="1" source="QKw1NBS8k4IxVELJMw76-6" target="QKw1NBS8k4IxVELJMw76-10">
          <mxGeometry relative="1" as="geometry">
            <mxPoint x="-55" y="1390" as="targetPoint" />
            <mxPoint x="-120" y="1535" as="sourcePoint" />
          </mxGeometry>
        </mxCell>
        <mxCell id="QKw1NBS8k4IxVELJMw76-15" value="" style="shape=line;html=1;strokeWidth=6;strokeColor=#ff0000;rotation=-90;" vertex="1" parent="1">
          <mxGeometry x="20" y="960" width="865" height="10" as="geometry" />
        </mxCell>
        <mxCell id="QKw1NBS8k4IxVELJMw76-17" value="" style="edgeStyle=orthogonalEdgeStyle;html=1;verticalAlign=bottom;endArrow=open;endSize=8;strokeColor=#ff0000;rounded=0;entryX=0.092;entryY=0.628;entryDx=0;entryDy=0;exitX=1;exitY=0.5;exitDx=0;exitDy=0;entryPerimeter=0;" edge="1" parent="1" source="QKw1NBS8k4IxVELJMw76-8" target="QKw1NBS8k4IxVELJMw76-15">
          <mxGeometry relative="1" as="geometry">
            <mxPoint x="-55" y="1390" as="targetPoint" />
            <mxPoint x="-120" y="1535" as="sourcePoint" />
            <Array as="points">
              <mxPoint x="420" y="1420" />
              <mxPoint x="420" y="1318" />
            </Array>
          </mxGeometry>
        </mxCell>
        <mxCell id="QKw1NBS8k4IxVELJMw76-18" value="" style="edgeStyle=orthogonalEdgeStyle;html=1;verticalAlign=bottom;endArrow=open;endSize=8;strokeColor=#ff0000;rounded=0;exitX=1;exitY=0.5;exitDx=0;exitDy=0;entryX=0.194;entryY=0.207;entryDx=0;entryDy=0;entryPerimeter=0;" edge="1" parent="1" source="QKw1NBS8k4IxVELJMw76-13" target="QKw1NBS8k4IxVELJMw76-15">
          <mxGeometry relative="1" as="geometry">
            <mxPoint x="461" y="1230" as="targetPoint" />
            <mxPoint x="350" y="1254" as="sourcePoint" />
            <Array as="points">
              <mxPoint x="410" y="1260" />
              <mxPoint x="410" y="1230" />
            </Array>
          </mxGeometry>
        </mxCell>
        <mxCell id="QKw1NBS8k4IxVELJMw76-20" value="" style="rhombus;whiteSpace=wrap;html=1;fontColor=#000000;fillColor=#ffffc0;strokeColor=#ff0000;" vertex="1" parent="1">
          <mxGeometry x="490" y="570" width="40" height="40" as="geometry" />
        </mxCell>
        <mxCell id="QKw1NBS8k4IxVELJMw76-21" value="&lt;font style=&quot;font-size: 14px;&quot;&gt;&lt;b&gt;[Post DVDs]&lt;/b&gt;&lt;/font&gt;" style="edgeStyle=orthogonalEdgeStyle;html=1;align=left;verticalAlign=bottom;endArrow=open;endSize=8;strokeColor=#ff0000;rounded=0;entryX=0;entryY=0.5;entryDx=0;entryDy=0;exitX=0.5;exitY=0;exitDx=0;exitDy=0;" edge="1" parent="1" source="QKw1NBS8k4IxVELJMw76-20" target="QKw1NBS8k4IxVELJMw76-23">
          <mxGeometry x="-0.1667" y="-20" relative="1" as="geometry">
            <mxPoint x="620" y="710" as="targetPoint" />
            <mxPoint x="-20" y="-20" as="offset" />
          </mxGeometry>
        </mxCell>
        <mxCell id="QKw1NBS8k4IxVELJMw76-22" value="&lt;font style=&quot;font-size: 14px;&quot;&gt;&lt;b&gt;[Post Video]&lt;/b&gt;&lt;/font&gt;" style="edgeStyle=orthogonalEdgeStyle;html=1;align=left;verticalAlign=top;endArrow=open;endSize=8;strokeColor=#ff0000;rounded=0;entryX=0;entryY=0.5;entryDx=0;entryDy=0;exitX=0.5;exitY=1;exitDx=0;exitDy=0;" edge="1" parent="1" source="QKw1NBS8k4IxVELJMw76-20" target="QKw1NBS8k4IxVELJMw76-25">
          <mxGeometry x="-0.2727" y="-20" relative="1" as="geometry">
            <mxPoint x="480" y="790" as="targetPoint" />
            <mxPoint x="-20" y="-20" as="offset" />
          </mxGeometry>
        </mxCell>
        <mxCell id="QKw1NBS8k4IxVELJMw76-23" value="&lt;font style=&quot;font-size: 18px;&quot;&gt;&lt;b&gt;Post DVDs&lt;/b&gt;&lt;/font&gt;" style="rounded=1;whiteSpace=wrap;html=1;arcSize=40;fontColor=#000000;fillColor=#ffffc0;strokeColor=#ff0000;" vertex="1" parent="1">
          <mxGeometry x="580" y="500" width="120" height="40" as="geometry" />
        </mxCell>
        <mxCell id="QKw1NBS8k4IxVELJMw76-25" value="&lt;font style=&quot;font-size: 18px;&quot;&gt;&lt;b&gt;Post video&lt;/b&gt;&lt;/font&gt;" style="rounded=1;whiteSpace=wrap;html=1;arcSize=40;fontColor=#000000;fillColor=#ffffc0;strokeColor=#ff0000;" vertex="1" parent="1">
          <mxGeometry x="580" y="630" width="120" height="40" as="geometry" />
        </mxCell>
        <mxCell id="QKw1NBS8k4IxVELJMw76-28" value="" style="edgeStyle=orthogonalEdgeStyle;html=1;verticalAlign=bottom;endArrow=open;endSize=8;strokeColor=#ff0000;rounded=0;exitX=0.905;exitY=0.51;exitDx=0;exitDy=0;exitPerimeter=0;entryX=0;entryY=0.5;entryDx=0;entryDy=0;" edge="1" parent="1" source="QKw1NBS8k4IxVELJMw76-15" target="QKw1NBS8k4IxVELJMw76-20">
          <mxGeometry relative="1" as="geometry">
            <mxPoint x="471" y="1240" as="targetPoint" />
            <mxPoint x="360" y="1270" as="sourcePoint" />
            <Array as="points">
              <mxPoint x="463" y="590" />
            </Array>
          </mxGeometry>
        </mxCell>
        <mxCell id="QKw1NBS8k4IxVELJMw76-29" value="&lt;font style=&quot;font-size: 18px;&quot;&gt;&lt;b&gt;Add new movie&lt;/b&gt;&lt;/font&gt;" style="rounded=1;whiteSpace=wrap;html=1;arcSize=40;fontColor=#000000;fillColor=#ffffc0;strokeColor=#ff0000;" vertex="1" parent="1">
          <mxGeometry x="750" y="570" width="120" height="40" as="geometry" />
        </mxCell>
        <mxCell id="QKw1NBS8k4IxVELJMw76-32" value="" style="edgeStyle=orthogonalEdgeStyle;html=1;verticalAlign=bottom;endArrow=open;endSize=8;strokeColor=#ff0000;rounded=0;exitX=1;exitY=0.5;exitDx=0;exitDy=0;entryX=0.5;entryY=0;entryDx=0;entryDy=0;" edge="1" parent="1" source="QKw1NBS8k4IxVELJMw76-23" target="QKw1NBS8k4IxVELJMw76-29">
          <mxGeometry relative="1" as="geometry">
            <mxPoint x="500" y="600" as="targetPoint" />
            <mxPoint x="473" y="625" as="sourcePoint" />
            <Array as="points">
              <mxPoint x="810" y="520" />
            </Array>
          </mxGeometry>
        </mxCell>
        <mxCell id="QKw1NBS8k4IxVELJMw76-33" value="" style="edgeStyle=orthogonalEdgeStyle;html=1;verticalAlign=bottom;endArrow=open;endSize=8;strokeColor=#ff0000;rounded=0;exitX=1;exitY=0.5;exitDx=0;exitDy=0;entryX=0.5;entryY=1;entryDx=0;entryDy=0;" edge="1" parent="1" source="QKw1NBS8k4IxVELJMw76-25" target="QKw1NBS8k4IxVELJMw76-29">
          <mxGeometry relative="1" as="geometry">
            <mxPoint x="820" y="580" as="targetPoint" />
            <mxPoint x="750" y="530" as="sourcePoint" />
            <Array as="points">
              <mxPoint x="810" y="650" />
            </Array>
          </mxGeometry>
        </mxCell>
        <mxCell id="QKw1NBS8k4IxVELJMw76-34" value="" style="rhombus;whiteSpace=wrap;html=1;fontColor=#000000;fillColor=#ffffc0;strokeColor=#ff0000;" vertex="1" parent="1">
          <mxGeometry x="480" y="1129" width="80" height="40" as="geometry" />
        </mxCell>
        <mxCell id="QKw1NBS8k4IxVELJMw76-35" value="&lt;font style=&quot;font-size: 14px;&quot;&gt;&lt;b&gt;[Give selling privileges]&lt;/b&gt;&lt;/font&gt;" style="edgeStyle=orthogonalEdgeStyle;html=1;align=left;verticalAlign=bottom;endArrow=open;endSize=8;strokeColor=#ff0000;rounded=0;entryX=0;entryY=0.5;entryDx=0;entryDy=0;exitX=0.5;exitY=1;exitDx=0;exitDy=0;" edge="1" parent="1" source="QKw1NBS8k4IxVELJMw76-34" target="QKw1NBS8k4IxVELJMw76-42">
          <mxGeometry x="-0.1065" relative="1" as="geometry">
            <mxPoint x="560" y="1370" as="targetPoint" />
            <mxPoint as="offset" />
          </mxGeometry>
        </mxCell>
        <mxCell id="QKw1NBS8k4IxVELJMw76-36" value="" style="edgeStyle=orthogonalEdgeStyle;html=1;align=left;verticalAlign=top;endArrow=open;endSize=8;strokeColor=#ff0000;rounded=0;exitX=0.284;exitY=0.45;exitDx=0;exitDy=0;exitPerimeter=0;entryX=0;entryY=0.5;entryDx=0;entryDy=0;" edge="1" parent="1" source="QKw1NBS8k4IxVELJMw76-15" target="QKw1NBS8k4IxVELJMw76-34">
          <mxGeometry x="0.078" y="-31" relative="1" as="geometry">
            <mxPoint x="590" y="1140" as="targetPoint" />
            <Array as="points">
              <mxPoint x="452" y="1150" />
              <mxPoint x="480" y="1150" />
            </Array>
            <mxPoint x="-9" y="-1" as="offset" />
          </mxGeometry>
        </mxCell>
        <mxCell id="QKw1NBS8k4IxVELJMw76-41" value="&lt;font style=&quot;font-size: 14px;&quot;&gt;&lt;b&gt;[Cancel selling privileges]&lt;/b&gt;&lt;/font&gt;" style="edgeStyle=orthogonalEdgeStyle;html=1;align=left;verticalAlign=bottom;endArrow=open;endSize=8;strokeColor=#ff0000;rounded=0;exitX=1;exitY=0.5;exitDx=0;exitDy=0;entryX=0.5;entryY=0;entryDx=0;entryDy=0;" edge="1" parent="1" source="QKw1NBS8k4IxVELJMw76-34" target="QKw1NBS8k4IxVELJMw76-42">
          <mxGeometry x="0.5189" relative="1" as="geometry">
            <mxPoint x="570" y="1380" as="targetPoint" />
            <mxPoint x="570" y="1210" as="sourcePoint" />
            <mxPoint as="offset" />
            <Array as="points">
              <mxPoint x="690" y="1149" />
            </Array>
          </mxGeometry>
        </mxCell>
        <mxCell id="QKw1NBS8k4IxVELJMw76-42" value="" style="rhombus;whiteSpace=wrap;html=1;fontColor=#000000;fillColor=#ffffc0;strokeColor=#ff0000;" vertex="1" parent="1">
          <mxGeometry x="650" y="1310" width="80" height="40" as="geometry" />
        </mxCell>
        <mxCell id="QKw1NBS8k4IxVELJMw76-43" value="&lt;font style=&quot;font-size: 14px;&quot;&gt;&lt;b&gt;[Customer]&lt;/b&gt;&lt;/font&gt;" style="edgeStyle=orthogonalEdgeStyle;html=1;align=left;verticalAlign=bottom;endArrow=open;endSize=8;strokeColor=#ff0000;rounded=0;entryX=0;entryY=0.5;entryDx=0;entryDy=0;" edge="1" parent="1" source="QKw1NBS8k4IxVELJMw76-42" target="QKw1NBS8k4IxVELJMw76-50">
          <mxGeometry x="-1" relative="1" as="geometry">
            <mxPoint x="790" y="1330" as="targetPoint" />
            <Array as="points">
              <mxPoint x="810" y="1330" />
              <mxPoint x="810" y="1330" />
            </Array>
          </mxGeometry>
        </mxCell>
        <mxCell id="QKw1NBS8k4IxVELJMw76-44" value="&lt;font style=&quot;font-size: 14px;&quot;&gt;&lt;b&gt;[Regular customer]&lt;/b&gt;&lt;/font&gt;" style="edgeStyle=orthogonalEdgeStyle;html=1;align=left;verticalAlign=top;endArrow=open;endSize=8;strokeColor=#ff0000;rounded=0;entryX=0.5;entryY=0;entryDx=0;entryDy=0;" edge="1" parent="1" source="QKw1NBS8k4IxVELJMw76-42" target="QKw1NBS8k4IxVELJMw76-45">
          <mxGeometry x="-0.7143" relative="1" as="geometry">
            <mxPoint x="650" y="1410" as="targetPoint" />
            <mxPoint as="offset" />
          </mxGeometry>
        </mxCell>
        <mxCell id="QKw1NBS8k4IxVELJMw76-45" value="&lt;font style=&quot;font-size: 18px;&quot;&gt;&lt;b&gt;Receive privileges&lt;/b&gt;&lt;/font&gt;" style="rounded=1;whiteSpace=wrap;html=1;arcSize=40;fontColor=#000000;fillColor=#ffffc0;strokeColor=#ff0000;" vertex="1" parent="1">
          <mxGeometry x="630" y="1400" width="120" height="50" as="geometry" />
        </mxCell>
        <mxCell id="QKw1NBS8k4IxVELJMw76-48" value="" style="edgeStyle=orthogonalEdgeStyle;html=1;verticalAlign=bottom;endArrow=open;endSize=8;strokeColor=#ff0000;rounded=0;entryX=0.5;entryY=1;entryDx=0;entryDy=0;exitX=1;exitY=0.5;exitDx=0;exitDy=0;" edge="1" parent="1" source="ASQWpt-JjjPKI-APMA-5-25" target="QKw1NBS8k4IxVELJMw76-47">
          <mxGeometry relative="1" as="geometry">
            <mxPoint x="-65" y="1380" as="targetPoint" />
            <mxPoint x="-130" y="1525" as="sourcePoint" />
          </mxGeometry>
        </mxCell>
        <mxCell id="QKw1NBS8k4IxVELJMw76-47" value="&lt;b&gt;&lt;font style=&quot;font-size: 18px;&quot;&gt;Go online&lt;/font&gt;&lt;/b&gt;" style="rounded=1;whiteSpace=wrap;html=1;arcSize=40;fontColor=#000000;fillColor=#ffffc0;strokeColor=#ff0000;" vertex="1" parent="1">
          <mxGeometry x="-130" y="1420" width="120" height="40" as="geometry" />
        </mxCell>
        <mxCell id="QKw1NBS8k4IxVELJMw76-50" value="&lt;font style=&quot;font-size: 18px;&quot;&gt;&lt;b&gt;Search for a movie&amp;nbsp;&lt;/b&gt;&lt;/font&gt;" style="rounded=1;whiteSpace=wrap;html=1;arcSize=40;fontColor=#000000;fillColor=#ffffc0;strokeColor=#ff0000;" vertex="1" parent="1">
          <mxGeometry x="820" y="1310" width="120" height="40" as="geometry" />
        </mxCell>
        <mxCell id="QKw1NBS8k4IxVELJMw76-52" value="" style="edgeStyle=orthogonalEdgeStyle;html=1;align=left;verticalAlign=bottom;endArrow=open;endSize=8;strokeColor=#ff0000;rounded=0;entryX=0.5;entryY=1;entryDx=0;entryDy=0;exitX=1;exitY=0.5;exitDx=0;exitDy=0;" edge="1" parent="1" source="QKw1NBS8k4IxVELJMw76-45" target="QKw1NBS8k4IxVELJMw76-50">
          <mxGeometry x="-1" relative="1" as="geometry">
            <mxPoint x="860" y="1280" as="targetPoint" />
            <mxPoint x="740" y="1340" as="sourcePoint" />
            <Array as="points">
              <mxPoint x="880" y="1420" />
            </Array>
          </mxGeometry>
        </mxCell>
        <mxCell id="QKw1NBS8k4IxVELJMw76-54" value="" style="edgeStyle=orthogonalEdgeStyle;html=1;align=left;verticalAlign=top;endArrow=open;endSize=8;strokeColor=#ff0000;rounded=0;entryX=0.5;entryY=1;entryDx=0;entryDy=0;exitX=1;exitY=0.5;exitDx=0;exitDy=0;" edge="1" parent="1" source="QKw1NBS8k4IxVELJMw76-50" target="QKw1NBS8k4IxVELJMw76-64">
          <mxGeometry x="0.078" y="-31" relative="1" as="geometry">
            <mxPoint x="1020.0000000000005" y="1330" as="targetPoint" />
            <mxPoint x="950" y="1270" as="sourcePoint" />
            <mxPoint x="-9" y="-1" as="offset" />
          </mxGeometry>
        </mxCell>
        <mxCell id="QKw1NBS8k4IxVELJMw76-58" value="&lt;font style=&quot;font-size: 18px;&quot;&gt;&lt;b&gt;Send to administrator&lt;/b&gt;&lt;/font&gt;" style="rounded=1;whiteSpace=wrap;html=1;arcSize=40;fontColor=#000000;fillColor=#ffffc0;strokeColor=#ff0000;" vertex="1" parent="1">
          <mxGeometry x="-130" y="1220" width="120" height="50" as="geometry" />
        </mxCell>
        <mxCell id="QKw1NBS8k4IxVELJMw76-59" value="" style="edgeStyle=orthogonalEdgeStyle;html=1;verticalAlign=bottom;endArrow=open;endSize=8;strokeColor=#ff0000;rounded=0;exitX=0.5;exitY=0;exitDx=0;exitDy=0;entryX=0.5;entryY=1;entryDx=0;entryDy=0;" edge="1" parent="1" source="QKw1NBS8k4IxVELJMw76-58" target="QKw1NBS8k4IxVELJMw76-6">
          <mxGeometry relative="1" as="geometry">
            <mxPoint x="-60" y="1350" as="targetPoint" />
            <mxPoint x="-60" y="1370" as="sourcePoint" />
          </mxGeometry>
        </mxCell>
        <mxCell id="QKw1NBS8k4IxVELJMw76-63" value="&lt;font style=&quot;font-size: 18px;&quot;&gt;&lt;b&gt;communicate with seller&lt;/b&gt;&lt;/font&gt;" style="rounded=1;whiteSpace=wrap;html=1;arcSize=40;fontColor=#000000;fillColor=#ffffc0;strokeColor=#ff0000;" vertex="1" parent="1">
          <mxGeometry x="1190" y="1240" width="120" height="40" as="geometry" />
        </mxCell>
        <mxCell id="QKw1NBS8k4IxVELJMw76-64" value="" style="rhombus;whiteSpace=wrap;html=1;fontColor=#000000;fillColor=#ffffc0;strokeColor=#ff0000;" vertex="1" parent="1">
          <mxGeometry x="1020" y="1240" width="60" height="40" as="geometry" />
        </mxCell>
        <mxCell id="QKw1NBS8k4IxVELJMw76-65" value="&lt;font style=&quot;font-size: 14px;&quot;&gt;&lt;b&gt;[Found movie]&lt;/b&gt;&lt;/font&gt;" style="edgeStyle=orthogonalEdgeStyle;html=1;align=left;verticalAlign=bottom;endArrow=open;endSize=8;strokeColor=#ff0000;rounded=0;entryX=0;entryY=0.5;entryDx=0;entryDy=0;exitX=1;exitY=0.5;exitDx=0;exitDy=0;" edge="1" parent="1" source="QKw1NBS8k4IxVELJMw76-64" target="QKw1NBS8k4IxVELJMw76-63">
          <mxGeometry x="-1" y="14" relative="1" as="geometry">
            <mxPoint x="1050" y="1160" as="targetPoint" />
            <Array as="points">
              <mxPoint x="1110" y="1260" />
            </Array>
            <mxPoint x="-10" y="4" as="offset" />
          </mxGeometry>
        </mxCell>
        <mxCell id="QKw1NBS8k4IxVELJMw76-66" value="&lt;font style=&quot;font-size: 14px;&quot;&gt;&lt;b&gt;[Re-input movie name]&lt;/b&gt;&lt;/font&gt;" style="edgeStyle=orthogonalEdgeStyle;html=1;align=left;verticalAlign=top;endArrow=open;endSize=8;strokeColor=#ff0000;rounded=0;" edge="1" parent="1" source="QKw1NBS8k4IxVELJMw76-64" target="QKw1NBS8k4IxVELJMw76-50">
          <mxGeometry x="0.6" relative="1" as="geometry">
            <mxPoint x="910" y="1240" as="targetPoint" />
            <mxPoint as="offset" />
          </mxGeometry>
        </mxCell>
        <mxCell id="QKw1NBS8k4IxVELJMw76-70" value="&lt;font style=&quot;font-size: 18px;&quot;&gt;&lt;b&gt;Purchase movie&lt;/b&gt;&lt;/font&gt;" style="rounded=1;whiteSpace=wrap;html=1;arcSize=40;fontColor=#000000;fillColor=#ffffc0;strokeColor=#ff0000;" vertex="1" parent="1">
          <mxGeometry x="1260" y="1340" width="120" height="40" as="geometry" />
        </mxCell>
        <mxCell id="QKw1NBS8k4IxVELJMw76-71" value="" style="edgeStyle=orthogonalEdgeStyle;html=1;align=left;verticalAlign=top;endArrow=open;endSize=8;strokeColor=#ff0000;rounded=0;entryX=0;entryY=0.5;entryDx=0;entryDy=0;exitX=0.75;exitY=1;exitDx=0;exitDy=0;" edge="1" parent="1" source="QKw1NBS8k4IxVELJMw76-63" target="QKw1NBS8k4IxVELJMw76-70">
          <mxGeometry x="0.078" y="-31" relative="1" as="geometry">
            <mxPoint x="1040" y="1290" as="targetPoint" />
            <mxPoint x="1040" y="1320" as="sourcePoint" />
            <mxPoint x="-9" y="-1" as="offset" />
            <Array as="points">
              <mxPoint x="1230" y="1360" />
            </Array>
          </mxGeometry>
        </mxCell>
        <mxCell id="QKw1NBS8k4IxVELJMw76-73" value="" style="rhombus;whiteSpace=wrap;html=1;fontColor=#000000;fillColor=#ffffc0;strokeColor=#ff0000;" vertex="1" parent="1">
          <mxGeometry x="1470" y="1240" width="50" height="40" as="geometry" />
        </mxCell>
        <mxCell id="QKw1NBS8k4IxVELJMw76-74" value="&lt;font style=&quot;font-size: 14px;&quot;&gt;&lt;b&gt;[Successful payment]&lt;/b&gt;&lt;/font&gt;" style="edgeStyle=orthogonalEdgeStyle;html=1;align=left;verticalAlign=bottom;endArrow=open;endSize=8;strokeColor=#ff0000;rounded=0;exitX=0.5;exitY=0;exitDx=0;exitDy=0;entryX=0.25;entryY=0.5;entryDx=0;entryDy=0;entryPerimeter=0;" edge="1" parent="1" source="QKw1NBS8k4IxVELJMw76-73" target="QKw1NBS8k4IxVELJMw76-81">
          <mxGeometry x="-0.2076" relative="1" as="geometry">
            <mxPoint x="1440" y="820" as="targetPoint" />
            <mxPoint x="1416.64" y="1240" as="sourcePoint" />
            <Array as="points">
              <mxPoint x="1417" y="1240" />
              <mxPoint x="1417" y="855" />
            </Array>
            <mxPoint y="1" as="offset" />
          </mxGeometry>
        </mxCell>
        <mxCell id="QKw1NBS8k4IxVELJMw76-75" value="&lt;font style=&quot;font-size: 14px;&quot;&gt;&lt;b&gt;[Unsuccessful payment]&lt;/b&gt;&lt;/font&gt;" style="edgeStyle=orthogonalEdgeStyle;html=1;align=left;verticalAlign=top;endArrow=open;endSize=8;strokeColor=#ff0000;rounded=0;entryX=1;entryY=0.5;entryDx=0;entryDy=0;" edge="1" parent="1" source="QKw1NBS8k4IxVELJMw76-73" target="QKw1NBS8k4IxVELJMw76-63">
          <mxGeometry x="1" relative="1" as="geometry">
            <mxPoint x="1420" y="1200" as="targetPoint" />
            <mxPoint as="offset" />
          </mxGeometry>
        </mxCell>
        <mxCell id="QKw1NBS8k4IxVELJMw76-77" value="" style="edgeStyle=orthogonalEdgeStyle;html=1;align=left;verticalAlign=top;endArrow=open;endSize=8;strokeColor=#ff0000;rounded=0;entryX=0;entryY=0.5;entryDx=0;entryDy=0;exitX=1;exitY=0.5;exitDx=0;exitDy=0;" edge="1" parent="1" source="QKw1NBS8k4IxVELJMw76-70" target="QKw1NBS8k4IxVELJMw76-97">
          <mxGeometry x="0.078" y="-31" relative="1" as="geometry">
            <mxPoint x="1270" y="1370" as="targetPoint" />
            <mxPoint x="1180" y="1290" as="sourcePoint" />
            <mxPoint x="-9" y="-1" as="offset" />
            <Array as="points">
              <mxPoint x="1380" y="1420" />
            </Array>
          </mxGeometry>
        </mxCell>
        <mxCell id="QKw1NBS8k4IxVELJMw76-81" value="" style="shape=line;html=1;strokeWidth=6;strokeColor=#ff0000;rotation=-90;" vertex="1" parent="1">
          <mxGeometry x="1360" y="800" width="200" height="10" as="geometry" />
        </mxCell>
        <mxCell id="QKw1NBS8k4IxVELJMw76-82" value="" style="edgeStyle=orthogonalEdgeStyle;html=1;verticalAlign=bottom;endArrow=open;endSize=8;strokeColor=#ff0000;rounded=0;exitX=0.75;exitY=0.5;exitDx=0;exitDy=0;exitPerimeter=0;entryX=0;entryY=0.5;entryDx=0;entryDy=0;" edge="1" parent="1" source="QKw1NBS8k4IxVELJMw76-81" target="QKw1NBS8k4IxVELJMw76-83">
          <mxGeometry relative="1" as="geometry">
            <mxPoint x="1380" y="950" as="targetPoint" />
            <Array as="points">
              <mxPoint x="1460" y="760" />
            </Array>
          </mxGeometry>
        </mxCell>
        <mxCell id="QKw1NBS8k4IxVELJMw76-83" value="&lt;font style=&quot;font-size: 18px;&quot;&gt;&lt;b&gt;Remove from profile&lt;/b&gt;&lt;/font&gt;" style="rounded=1;whiteSpace=wrap;html=1;arcSize=40;fontColor=#000000;fillColor=#ffffc0;strokeColor=#ff0000;" vertex="1" parent="1">
          <mxGeometry x="1520" y="730" width="120" height="60" as="geometry" />
        </mxCell>
        <mxCell id="QKw1NBS8k4IxVELJMw76-85" value="" style="edgeStyle=orthogonalEdgeStyle;html=1;verticalAlign=bottom;endArrow=open;endSize=8;strokeColor=#ff0000;rounded=0;exitX=0.25;exitY=0.5;exitDx=0;exitDy=0;exitPerimeter=0;entryX=0.5;entryY=1;entryDx=0;entryDy=0;" edge="1" parent="1" source="QKw1NBS8k4IxVELJMw76-81" target="QKw1NBS8k4IxVELJMw76-86">
          <mxGeometry relative="1" as="geometry">
            <mxPoint x="1579.53" y="860" as="targetPoint" />
            <mxPoint x="1460" y="877.3999999999999" as="sourcePoint" />
            <Array as="points">
              <mxPoint x="1580" y="855" />
            </Array>
          </mxGeometry>
        </mxCell>
        <mxCell id="QKw1NBS8k4IxVELJMw76-86" value="&lt;font style=&quot;font-size: 18px;&quot;&gt;&lt;b&gt;Email invoice&lt;/b&gt;&lt;/font&gt;" style="rounded=1;whiteSpace=wrap;html=1;arcSize=40;fontColor=#000000;fillColor=#ffffc0;strokeColor=#ff0000;" vertex="1" parent="1">
          <mxGeometry x="1520" y="800" width="120" height="40" as="geometry" />
        </mxCell>
        <mxCell id="QKw1NBS8k4IxVELJMw76-87" value="" style="shape=line;html=1;strokeWidth=6;strokeColor=#ff0000;rotation=-90;" vertex="1" parent="1">
          <mxGeometry x="1630" y="850" width="190" height="10" as="geometry" />
        </mxCell>
        <mxCell id="QKw1NBS8k4IxVELJMw76-89" value="" style="edgeStyle=orthogonalEdgeStyle;html=1;verticalAlign=bottom;endArrow=open;endSize=8;strokeColor=#ff0000;rounded=0;exitX=1;exitY=0.5;exitDx=0;exitDy=0;entryX=0.75;entryY=0.5;entryDx=0;entryDy=0;entryPerimeter=0;" edge="1" parent="1" source="QKw1NBS8k4IxVELJMw76-83" target="QKw1NBS8k4IxVELJMw76-87">
          <mxGeometry relative="1" as="geometry">
            <mxPoint x="1590" y="850" as="targetPoint" />
            <mxPoint x="1470" y="865" as="sourcePoint" />
            <Array as="points">
              <mxPoint x="1700" y="760" />
              <mxPoint x="1700" y="808" />
            </Array>
          </mxGeometry>
        </mxCell>
        <mxCell id="QKw1NBS8k4IxVELJMw76-90" value="" style="edgeStyle=orthogonalEdgeStyle;html=1;verticalAlign=bottom;endArrow=open;endSize=8;strokeColor=#ff0000;rounded=0;exitX=1;exitY=0.5;exitDx=0;exitDy=0;entryX=0.75;entryY=0.5;entryDx=0;entryDy=0;entryPerimeter=0;" edge="1" parent="1" source="QKw1NBS8k4IxVELJMw76-86">
          <mxGeometry relative="1" as="geometry">
            <mxPoint x="1725" y="868" as="targetPoint" />
            <mxPoint x="1640" y="820" as="sourcePoint" />
            <Array as="points">
              <mxPoint x="1700" y="820" />
              <mxPoint x="1700" y="868" />
            </Array>
          </mxGeometry>
        </mxCell>
        <mxCell id="QKw1NBS8k4IxVELJMw76-91" value="" style="edgeStyle=orthogonalEdgeStyle;html=1;verticalAlign=bottom;endArrow=open;endSize=8;strokeColor=#ff0000;rounded=0;exitX=0.25;exitY=0.5;exitDx=0;exitDy=0;exitPerimeter=0;" edge="1" parent="1" source="QKw1NBS8k4IxVELJMw76-87" target="QKw1NBS8k4IxVELJMw76-94">
          <mxGeometry relative="1" as="geometry">
            <mxPoint x="1830" y="948" as="targetPoint" />
            <mxPoint x="1760" y="900" as="sourcePoint" />
            <Array as="points">
              <mxPoint x="1725" y="900" />
              <mxPoint x="1790" y="900" />
              <mxPoint x="1790" y="948" />
            </Array>
          </mxGeometry>
        </mxCell>
        <mxCell id="QKw1NBS8k4IxVELJMw76-94" value="" style="ellipse;html=1;shape=endState;fillColor=#000000;strokeColor=#ff0000;" vertex="1" parent="1">
          <mxGeometry x="1815" y="933" width="30" height="30" as="geometry" />
        </mxCell>
        <mxCell id="QKw1NBS8k4IxVELJMw76-97" value="" style="rhombus;whiteSpace=wrap;html=1;fontColor=#000000;fillColor=#ffffc0;strokeColor=#ff0000;" vertex="1" parent="1">
          <mxGeometry x="1460" y="1400" width="80" height="40" as="geometry" />
        </mxCell>
        <mxCell id="QKw1NBS8k4IxVELJMw76-98" value="&lt;font style=&quot;font-size: 14px;&quot;&gt;&lt;b&gt;[Pay vai debit card]&lt;/b&gt;&lt;/font&gt;" style="edgeStyle=orthogonalEdgeStyle;html=1;align=left;verticalAlign=bottom;endArrow=open;endSize=8;strokeColor=#ff0000;rounded=0;entryX=0.5;entryY=1;entryDx=0;entryDy=0;" edge="1" parent="1" source="QKw1NBS8k4IxVELJMw76-97" target="QKw1NBS8k4IxVELJMw76-100">
          <mxGeometry x="-1" relative="1" as="geometry">
            <mxPoint x="1490" y="890" as="targetPoint" />
          </mxGeometry>
        </mxCell>
        <mxCell id="QKw1NBS8k4IxVELJMw76-99" value="&lt;font style=&quot;font-size: 14px;&quot;&gt;&lt;b&gt;[Pay vai credit card]&lt;/b&gt;&lt;/font&gt;" style="edgeStyle=orthogonalEdgeStyle;html=1;align=left;verticalAlign=top;endArrow=open;endSize=8;strokeColor=#ff0000;rounded=0;exitX=1;exitY=0.5;exitDx=0;exitDy=0;entryX=0.5;entryY=1;entryDx=0;entryDy=0;" edge="1" parent="1" source="QKw1NBS8k4IxVELJMw76-97" target="QKw1NBS8k4IxVELJMw76-102">
          <mxGeometry x="-1" relative="1" as="geometry">
            <mxPoint x="1350" y="970" as="targetPoint" />
          </mxGeometry>
        </mxCell>
        <mxCell id="QKw1NBS8k4IxVELJMw76-100" value="&lt;font style=&quot;font-size: 18px;&quot;&gt;&lt;b&gt;Debit card&lt;/b&gt;&lt;/font&gt;" style="rounded=1;whiteSpace=wrap;html=1;arcSize=40;fontColor=#000000;fillColor=#ffffc0;strokeColor=#ff0000;" vertex="1" parent="1">
          <mxGeometry x="1460" y="1320" width="80" height="40" as="geometry" />
        </mxCell>
        <mxCell id="QKw1NBS8k4IxVELJMw76-102" value="&lt;font style=&quot;font-size: 18px;&quot;&gt;&lt;b&gt;Credit card&lt;/b&gt;&lt;/font&gt;" style="rounded=1;whiteSpace=wrap;html=1;arcSize=40;fontColor=#000000;fillColor=#ffffc0;strokeColor=#ff0000;" vertex="1" parent="1">
          <mxGeometry x="1620" y="1340" width="80" height="40" as="geometry" />
        </mxCell>
        <mxCell id="QKw1NBS8k4IxVELJMw76-103" value="" style="edgeStyle=orthogonalEdgeStyle;html=1;align=left;verticalAlign=top;endArrow=open;endSize=8;strokeColor=#ff0000;rounded=0;entryX=0.5;entryY=1;entryDx=0;entryDy=0;exitX=0.5;exitY=0;exitDx=0;exitDy=0;" edge="1" parent="1" source="QKw1NBS8k4IxVELJMw76-100" target="QKw1NBS8k4IxVELJMw76-73">
          <mxGeometry x="0.078" y="-31" relative="1" as="geometry">
            <mxPoint x="1470" y="1430" as="targetPoint" />
            <mxPoint x="1390" y="1370" as="sourcePoint" />
            <mxPoint x="-9" y="-1" as="offset" />
            <Array as="points">
              <mxPoint x="1495" y="1320" />
            </Array>
          </mxGeometry>
        </mxCell>
        <mxCell id="QKw1NBS8k4IxVELJMw76-104" value="" style="edgeStyle=orthogonalEdgeStyle;html=1;align=left;verticalAlign=top;endArrow=open;endSize=8;strokeColor=#ff0000;rounded=0;entryX=1;entryY=0.5;entryDx=0;entryDy=0;exitX=0.505;exitY=-0.059;exitDx=0;exitDy=0;exitPerimeter=0;" edge="1" parent="1" source="QKw1NBS8k4IxVELJMw76-102" target="QKw1NBS8k4IxVELJMw76-73">
          <mxGeometry x="0.078" y="-31" relative="1" as="geometry">
            <mxPoint x="1505" y="1290" as="targetPoint" />
            <mxPoint x="1510" y="1330" as="sourcePoint" />
            <mxPoint x="-9" y="-1" as="offset" />
            <Array as="points">
              <mxPoint x="1660" y="1260" />
            </Array>
          </mxGeometry>
        </mxCell>
      </root>
    </mxGraphModel>
  </diagram>
</mxfile>
